#N canvas 122 83 936 583 12;
#X obj 201 170 + 1;
#X msg 201 123 0;
#X obj 201 103 loadbang;
#X obj 201 68 + 1;
#X obj 201 147 f 0;
#X obj 157 69 sel 0;
#X obj 201 23 inlet;
#X msg 98 429 0;
#X obj 98 409 loadbang;
#X msg 224 466 0 2 4 7 9;
#X msg 251 404 5 7 9 12 14;
#X msg 258 384 7 9 11 14 16;
#X obj 157 231 pack f f;
#X text 277 328 major scale;
#X msg 476 477 0 3 5 7 10;
#X msg 484 457 2 5 7 8 12;
#X msg 495 414 5 8 10 12 15;
#X msg 499 393 7 10 12 14 17;
#X text 526 331 minor scale;
#X obj 157 251 route 0 1 2 3;
#X msg 98 429 0;
#X obj 98 409 loadbang;
#X msg 742 469 -3 -1 1 4 6;
#X msg 769 407 2 4 6 9 11;
#X text 801 329 major scale;
#X msg 778 387 4 6 8 11 13;
#X text 118 301 0 & 2;
#X text 393 301 1;
#X text 663 305 3;
#X obj 439 65 array define -k pentaScalea 5;
#A 0 0 2 4 7 9;
#X obj 30 511 array set pentaScalea;
#X obj 278 510 array set pentaScalea;
#X obj 548 514 array set pentaScalea;
#X floatatom 131 232 3 0 0 0 - - -, f 3;
#X floatatom 232 68 3 0 0 0 - - -, f 3;
#X obj 201 45 f 0;
#X obj 157 302 sel 0 1 2 3 4 5 6;
#X msg 232 446 2 5 7 9 12;
#X msg 240 425 4 7 9 11 14;
#X msg 490 436 3 5 7 10 12;
#X msg 507 371 8 10 12 15 17;
#X msg 514 349 10 12 14 17 19;
#X msg 750 449 -1 2 4 6 9;
#X msg 758 428 1 4 6 8 11;
#X msg 782 367 6 9 11 13 16;
#X msg 788 347 8 11 13 14 18;
#X obj 404 301 sel 0 1 2 3 4 5 6;
#X obj 674 305 sel 0 1 2 3 4 5 6;
#X msg 264 364 9 12 14 16 19;
#X msg 268 344 11 14 16 17 21;
#X text 472 82 array goes from 0-4;
#X obj 223 208 random 7;
#X text 289 207 scale chg lags notes;
#X floatatom 223 231 3 0 0 0 - - -, f 3;
#X floatatom 232 170 3 0 0 0 - - -, f 3;
#X obj 231 45 mod 16;
#X text 120 45 one measure;
#X text 50 146 measures to scale chg;
#X obj 157 171 sel 0;
#X obj 157 208 random 3;
#X obj 136 207 bng 15 250 50 0 empty empty empty 17 7 0 10 -262144
-1 -1;
#X text 677 288 for future use;
#X text 408 284 for future use;
#N canvas 798 113 632 468 copyrightInfo 0;
#X text 43 19 This program creates generative music on an Elektron
Digitone. Copyright (C) 2019 Jerry Z. Raski This program is free software:
you can redistribute it and/or modify it under the terms of the GNU
General Public License as published by the Free Software Foundation
\, either version 3 of the License \, or (at your option) any later
version. This program is distributed in the hope that it will be useful
\, but WITHOUT ANY WARRANTY \; without even the implied warranty of
MERCHANTABILITY or FITNESS FOR A PARTICULAR PURPOSE. See the GNU General
Public License for more details. You should have received a copy of
the GNU General Public License along with this program. If not \, see
<https://www.gnu.org/licenses/>.;
#X text 74 306 j.raski@gmail.com;
#X restore 12 557 pd copyrightInfo;
#X obj 231 147 mod 8;
#X connect 0 0 64 0;
#X connect 1 0 4 0;
#X connect 2 0 1 0;
#X connect 3 0 55 0;
#X connect 4 0 0 0;
#X connect 4 0 54 0;
#X connect 4 0 58 0;
#X connect 5 0 4 0;
#X connect 6 0 35 0;
#X connect 7 0 30 1;
#X connect 8 0 7 0;
#X connect 9 0 30 0;
#X connect 10 0 30 0;
#X connect 11 0 30 0;
#X connect 12 0 19 0;
#X connect 14 0 31 0;
#X connect 15 0 31 0;
#X connect 16 0 31 0;
#X connect 17 0 31 0;
#X connect 19 0 36 0;
#X connect 19 1 36 0;
#X connect 19 2 36 0;
#X connect 19 3 36 0;
#X connect 21 0 20 0;
#X connect 22 0 32 0;
#X connect 23 0 32 0;
#X connect 25 0 32 0;
#X connect 35 0 3 0;
#X connect 35 0 5 0;
#X connect 35 0 34 0;
#X connect 36 0 9 0;
#X connect 36 1 37 0;
#X connect 36 2 38 0;
#X connect 36 3 10 0;
#X connect 36 4 11 0;
#X connect 36 5 48 0;
#X connect 36 6 49 0;
#X connect 36 7 9 0;
#X connect 37 0 30 0;
#X connect 38 0 30 0;
#X connect 39 0 31 0;
#X connect 40 0 31 0;
#X connect 41 0 31 0;
#X connect 42 0 32 0;
#X connect 43 0 32 0;
#X connect 44 0 32 0;
#X connect 45 0 32 0;
#X connect 46 0 14 0;
#X connect 46 1 15 0;
#X connect 46 2 39 0;
#X connect 46 3 16 0;
#X connect 46 4 17 0;
#X connect 46 5 40 0;
#X connect 46 6 41 0;
#X connect 46 7 14 0;
#X connect 47 0 22 0;
#X connect 47 1 42 0;
#X connect 47 2 43 0;
#X connect 47 3 23 0;
#X connect 47 4 25 0;
#X connect 47 5 44 0;
#X connect 47 6 45 0;
#X connect 47 7 22 0;
#X connect 48 0 30 0;
#X connect 49 0 30 0;
#X connect 51 0 12 1;
#X connect 51 0 53 0;
#X connect 55 0 35 1;
#X connect 58 0 59 0;
#X connect 58 0 51 0;
#X connect 58 0 60 0;
#X connect 59 0 12 0;
#X connect 59 0 33 0;
#X connect 64 0 4 1;
